<svg width="8" height="8" viewBox="0 0 22 21" fill="none" xmlns="http://www.w3.org/2000/svg">
<path d="M37.934 28.1178C36.7006 31.0641 34.7715 33.6603 32.3153 35.6795C29.8591 37.6987 26.9506 39.0795 23.8441 39.7009C20.7376 40.3224 17.5276 40.1658 14.4949 39.2447C11.4621 38.3236 8.69896 36.6661 6.4469 34.4171C4.19484 32.1681 2.52248 29.3961 1.57602 26.3435C0.629567 23.2908 0.437836 20.0504 1.01759 16.9057C1.59735 13.7609 2.93094 10.8074 4.90177 8.30347C6.8726 5.79955 9.42067 3.82141 12.3232 2.54199" fill="#A36BFD"/>
<path d="M37.934 28.1178C36.7006 31.0641 34.7715 33.6603 32.3153 35.6795C29.8591 37.6988 26.9506 39.0795 23.8441 39.7009C20.7376 40.3224 17.5276 40.1658 14.4949 39.2447C11.4621 38.3236 8.69896 36.6661 6.4469 34.4171C4.19484 32.1681 2.52248 29.3961 1.57602 26.3435C0.629567 23.2908 0.437836 20.0504 1.01759 16.9057C1.59735 13.7609 2.93094 10.8074 4.90177 8.30347C6.8726 5.79955 9.42067 3.82141 12.3232 2.54199" stroke="white" stroke-linecap="round" stroke-linejoin="round"/>
<path d="M39.3824 20.5C39.3824 17.9282 38.8809 15.3817 37.9066 13.0057C36.9323 10.6298 35.5042 8.47093 33.7039 6.65245C31.9036 4.83397 29.7664 3.39147 27.4142 2.40732C25.062 1.42316 22.5409 0.916626 19.9949 0.916626V20.5H39.3824Z" fill="#4EE2B5" stroke="white" stroke-linecap="round" stroke-linejoin="round"/>
</svg>
