<svg width="30" height="30" viewBox="0 0 30 30" fill="none" xmlns="http://www.w3.org/2000/svg">
<path d="M14.9849 18.7917C16.9669 18.7917 18.5736 17.1687 18.5736 15.1667C18.5736 13.1647 16.9669 11.5417 14.9849 11.5417C13.0029 11.5417 11.3961 13.1647 11.3961 15.1667C11.3961 17.1687 13.0029 18.7917 14.9849 18.7917Z" stroke="#8C8C8C" stroke-width="2.41667" stroke-linecap="round" stroke-linejoin="round"/>
<path d="M23.8371 18.7917C23.6779 19.1561 23.6304 19.5604 23.7007 19.9524C23.7711 20.3444 23.9561 20.7061 24.2319 20.9908L24.3037 21.0633C24.5261 21.2878 24.7026 21.5543 24.823 21.8477C24.9434 22.1411 25.0053 22.4555 25.0053 22.7731C25.0053 23.0907 24.9434 23.4052 24.823 23.6986C24.7026 23.9919 24.5261 24.2585 24.3037 24.4829C24.0815 24.7076 23.8176 24.8859 23.5272 25.0075C23.2367 25.1291 22.9254 25.1917 22.611 25.1917C22.2966 25.1917 21.9852 25.1291 21.6948 25.0075C21.4043 24.8859 21.1405 24.7076 20.9183 24.4829L20.8465 24.4104C20.5646 24.1319 20.2065 23.945 19.8184 23.8739C19.4304 23.8028 19.0301 23.8508 18.6693 24.0117C18.3155 24.1648 18.0138 24.4192 17.8012 24.7434C17.5887 25.0675 17.4746 25.4474 17.4731 25.8363V26.0417C17.4731 26.6826 17.221 27.2973 16.7723 27.7505C16.3237 28.2037 15.7151 28.4583 15.0806 28.4583C14.4461 28.4583 13.8375 28.2037 13.3888 27.7505C12.9402 27.2973 12.6881 26.6826 12.6881 26.0417V25.9329C12.6788 25.533 12.5507 25.1451 12.3203 24.8197C12.0899 24.4943 11.7679 24.2464 11.3962 24.1083C11.0353 23.9475 10.6351 23.8995 10.247 23.9706C9.85899 24.0417 9.50091 24.2285 9.21898 24.5071L9.14721 24.5796C8.92501 24.8043 8.66114 24.9825 8.3707 25.1041C8.08025 25.2258 7.76893 25.2884 7.45452 25.2884C7.1401 25.2884 6.82878 25.2258 6.53833 25.1041C6.24789 24.9825 5.98402 24.8043 5.76183 24.5796C5.53938 24.3551 5.36291 24.0886 5.24251 23.7952C5.12211 23.5019 5.06014 23.1874 5.06014 22.8698C5.06014 22.5522 5.12211 22.2377 5.24251 21.9444C5.36291 21.651 5.53938 21.3844 5.76183 21.16L5.8336 21.0875C6.10938 20.8027 6.29438 20.441 6.36474 20.049C6.4351 19.6571 6.3876 19.2528 6.22836 18.8883C6.07672 18.5309 5.82493 18.2261 5.50399 18.0115C5.18305 17.7968 4.80696 17.6816 4.42203 17.68H4.21867C3.58414 17.68 2.9756 17.4254 2.52692 16.9722C2.07824 16.519 1.82617 15.9043 1.82617 15.2633C1.82617 14.6224 2.07824 14.0077 2.52692 13.5545C2.9756 13.1013 3.58414 12.8467 4.21867 12.8467H4.32633C4.72228 12.8373 5.10629 12.7079 5.42843 12.4751C5.75057 12.2424 5.99595 11.9171 6.13266 11.5417C6.2919 11.1772 6.3394 10.7729 6.26904 10.381C6.19868 9.98898 6.01368 9.62728 5.7379 9.3425L5.66613 9.27C5.44368 9.04556 5.26721 8.77903 5.14681 8.48565C5.02641 8.19227 4.96444 7.8778 4.96444 7.56021C4.96444 7.24262 5.02641 6.92815 5.14681 6.63477C5.26721 6.34139 5.44368 6.07486 5.66613 5.85042C5.88832 5.62572 6.15219 5.44747 6.44263 5.32586C6.73308 5.20424 7.0444 5.14164 7.35882 5.14164C7.67323 5.14164 7.98455 5.20424 8.275 5.32586C8.56544 5.44747 8.82931 5.62572 9.05151 5.85042L9.12328 5.92292C9.40521 6.20148 9.76329 6.38835 10.1513 6.45942C10.5394 6.5305 10.9396 6.48251 11.3005 6.32167H11.3962C11.75 6.16849 12.0517 5.91416 12.2643 5.58998C12.4768 5.2658 12.5909 4.88591 12.5924 4.49708V4.29167C12.5924 3.65073 12.8445 3.03604 13.2931 2.58283C13.7418 2.12961 14.3504 1.875 14.9849 1.875C15.6194 1.875 16.228 2.12961 16.6766 2.58283C17.1253 3.03604 17.3774 3.65073 17.3774 4.29167V4.40042C17.3789 4.78924 17.493 5.16913 17.7055 5.49331C17.9181 5.8175 18.2198 6.07183 18.5736 6.225C18.9344 6.38585 19.3347 6.43383 19.7227 6.36276C20.1108 6.29168 20.4689 6.10482 20.7508 5.82625L20.8226 5.75375C21.0448 5.52906 21.3086 5.35081 21.5991 5.22919C21.8895 5.10757 22.2009 5.04497 22.5153 5.04497C22.8297 5.04497 23.141 5.10757 23.4315 5.22919C23.7219 5.35081 23.9858 5.52906 24.208 5.75375C24.4304 5.97819 24.6069 6.24472 24.7273 6.5381C24.8477 6.83148 24.9096 7.14595 24.9096 7.46354C24.9096 7.78113 24.8477 8.0956 24.7273 8.38898C24.6069 8.68236 24.4304 8.94889 24.208 9.17333L24.1362 9.24583C23.8604 9.53061 23.6754 9.89231 23.605 10.2843C23.5347 10.6763 23.5822 11.0805 23.7414 11.445V11.5417C23.8931 11.8991 24.1449 12.2039 24.4658 12.4185C24.7867 12.6332 25.1628 12.7484 25.5478 12.75H25.7511C26.3856 12.75 26.9942 13.0046 27.4429 13.4578C27.8915 13.911 28.1436 14.5257 28.1436 15.1667C28.1436 15.8076 27.8915 16.4223 27.4429 16.8755C26.9942 17.3287 26.3856 17.5833 25.7511 17.5833H25.6435C25.2585 17.5849 24.8824 17.7001 24.5615 17.9148C24.2406 18.1295 23.9888 18.4343 23.8371 18.7917Z" stroke="#8C8C8C" stroke-width="2.41667" stroke-linecap="round" stroke-linejoin="round"/>
</svg>
