<svg width="30" height="30" viewBox="0 0 30 30" fill="none" xmlns="http://www.w3.org/2000/svg">
<path d="M18.9148 1.03327C17.6568 0.544493 16.264 0.544493 15.006 1.03327L6.00324 4.5307C5.48955 4.73007 5.04774 5.08203 4.73609 5.54016C4.42443 5.99829 4.25757 6.54108 4.2575 7.09695V11.8078C4.84441 11.5976 5.4533 11.4561 6.0722 11.3862V7.62119L16.053 11.9417V24.8627L16.8551 25.6729C17.5587 25.6863 18.2582 25.5618 18.9148 25.3063L27.9194 21.8089C28.4327 21.6092 28.8741 21.2571 29.1854 20.799C29.4968 20.3409 29.6634 19.7983 29.6633 19.2426V7.09695C29.6634 6.5413 29.4968 5.99866 29.1854 5.54056C28.8741 5.08245 28.4327 4.73036 27.9194 4.5307L18.9148 1.03327ZM15.6574 2.74349C16.4961 2.41764 17.4247 2.41764 18.2633 2.74349L26.8251 6.07045L23.2919 7.5992L13.1459 3.7205L15.6574 2.74349ZM17.8677 11.9417L27.8486 7.62119V19.2426C27.8488 19.4279 27.7934 19.6088 27.6897 19.7617C27.5861 19.9145 27.439 20.032 27.2679 20.0987L18.2633 23.5961C18.1341 23.6468 18.002 23.6897 17.8677 23.7244V11.9417ZM16.9604 10.3396L7.09569 6.06861L10.6035 4.70667L20.8874 8.64036L16.9604 10.3396ZM6.97955 26.001C8.4059 26.001 9.72337 25.5244 10.7832 24.7234L15.4106 29.3976C15.4949 29.4829 15.5949 29.5505 15.705 29.5966C15.8151 29.6428 15.9332 29.6666 16.0524 29.6667C16.1716 29.6668 16.2897 29.6431 16.3999 29.5971C16.5101 29.5511 16.6102 29.4836 16.6945 29.3986C16.7789 29.3135 16.8458 29.2124 16.8915 29.1012C16.9372 28.99 16.9608 28.8707 16.9609 28.7503C16.961 28.6299 16.9376 28.5106 16.892 28.3993C16.8465 28.288 16.7797 28.1869 16.6954 28.1017L12.068 23.4274C12.9245 22.2704 13.3694 20.8552 13.3305 19.4109C13.2916 17.9667 12.7712 16.578 11.8536 15.4697C10.9361 14.3614 9.67501 13.5984 8.27465 13.3042C6.87429 13.01 5.41663 13.2019 4.13767 13.8487C2.85872 14.4956 1.83336 15.5596 1.22762 16.8684C0.621875 18.1772 0.471216 19.6542 0.800033 21.0603C1.12885 22.4664 1.9179 23.7192 3.0394 24.6159C4.16091 25.5125 5.54922 26.0006 6.97955 26.001ZM6.97955 24.168C5.77632 24.168 4.62238 23.6852 3.77158 22.8258C2.92077 21.9664 2.4428 20.8008 2.4428 19.5854C2.4428 18.37 2.92077 17.2044 3.77158 16.345C4.62238 15.4856 5.77632 15.0028 6.97955 15.0028C8.18277 15.0028 9.33671 15.4856 10.1875 16.345C11.0383 17.2044 11.5163 18.37 11.5163 19.5854C11.5163 20.8008 11.0383 21.9664 10.1875 22.8258C9.33671 23.6852 8.18277 24.168 6.97955 24.168Z" fill="#8C8C8C"/>
</svg>
