<svg width="31" height="24" viewBox="0 0 31 24" fill="none" xmlns="http://www.w3.org/2000/svg">
<path d="M11.3213 8.31857C11.5189 8.1057 11.7955 7.97762 12.0904 7.9625C12.3853 7.94737 12.6744 8.04645 12.8939 8.23793L16.6064 11.4779C16.7223 11.5792 16.8149 11.7029 16.8782 11.8411C16.9416 11.9793 16.9744 12.1288 16.9744 12.28C16.9744 12.4312 16.9416 12.5808 16.8782 12.7189C16.8149 12.8571 16.7223 12.9808 16.6064 13.0821L12.8939 16.3221C12.6744 16.5138 12.3853 16.6131 12.0902 16.5981C11.7951 16.5831 11.5183 16.4551 11.3206 16.2422C11.1229 16.0293 11.0205 15.7489 11.036 15.4628C11.0514 15.1767 11.1834 14.9082 11.403 14.7165L12.9593 13.36H7.69349C7.54723 13.36 7.40241 13.3321 7.26728 13.2778C7.13215 13.2235 7.00937 13.144 6.90595 13.0437C6.80253 12.9434 6.7205 12.8243 6.66452 12.6933C6.60855 12.5623 6.57974 12.4218 6.57974 12.28C6.57974 12.1382 6.60855 11.9977 6.66452 11.8667C6.7205 11.7357 6.80253 11.6166 6.90595 11.5163C7.00937 11.416 7.13215 11.3365 7.26728 11.2822C7.40241 11.2279 7.54723 11.2 7.69349 11.2H12.9593L11.403 9.84353C11.1837 9.65178 11.0519 9.38341 11.0366 9.09745C11.0213 8.81148 11.1237 8.53132 11.3213 8.31857ZM30.3397 19.8414C30.3393 20.8915 29.9089 21.8983 29.1431 22.6407C28.3773 23.383 27.3388 23.8 26.256 23.8H4.7235C4.18721 23.8 3.65618 23.6976 3.16072 23.4986C2.66526 23.2996 2.21507 23.0079 1.83586 22.6402C1.45665 22.2724 1.15584 21.8359 0.950615 21.3554C0.745386 20.875 0.639757 20.36 0.639757 19.84V4.72001C0.639757 3.66975 1.07001 2.66251 1.83586 1.91987C2.60171 1.17722 3.64042 0.76001 4.7235 0.76001H26.256C27.339 0.76001 28.3777 1.17722 29.1436 1.91987C29.9094 2.66251 30.3397 3.66975 30.3397 4.72001V19.8414ZM26.256 21.6414C27.2806 21.6414 28.1122 20.8351 28.1122 19.8414V4.71857C28.1122 3.72497 27.2806 2.91857 26.256 2.91857H21.4238V21.64L26.256 21.6414ZM19.1963 21.6414V2.92001H4.7235C3.69885 2.92001 2.86725 3.72641 2.86725 4.72001V19.84C2.86725 20.8336 3.69885 21.64 4.7235 21.64L19.1963 21.6414Z" fill="#937CBF"/>
</svg>
